<?xml version="1.0" encoding="utf-8"?>
<!-- Generator: Adobe Illustrator 23.0.0, SVG Export Plug-In . SVG Version: 6.00 Build 0)  -->
<svg version="1.1" id="Layer_1" xmlns="http://www.w3.org/2000/svg" xmlns:xlink="http://www.w3.org/1999/xlink" x="0px" y="0px"
	 viewBox="0 0 1366 768" style="enable-background:new 0 0 1366 768;" xml:space="preserve">
<g>
	<g>
		<path d="M345.4,364.8c-3.8-13.7,11.4-26.3,18.8-36.2c5.9-7.9,12.9-14.8,20.2-21.4c7.6-6.9,15-14,22.7-21
			c15.5-14.1,32.9-25.9,50.8-36.6c17.3-10.4,35.6-21.2,54.8-28c7.5-2.7,16.2-4.9,24.2-4.3c7.9,0.6,15,6.5,19.5,12.7
			c10.5,14.4,6.1,34.5,0.2,50c-6.9,18.1-18.7,34.4-29.9,50.1c-11.7,16.3-22.5,33.1-36.9,47.1c-16.8,16.4-33.6,32.8-50.9,48.7
			c-8.6,7.9-16.9,16.1-25.8,23.7c-4.1,3.5-8.3,6.8-12.7,10c-1.8,1.3-3.5,2.7-5.2,4.1c-0.7,0.6-1.4,1.2-2.2,1.7
			c-0.9,0.6-4.3,1.9-1.1,1.5c3.1,0.9,6.2,1.9,9.2,2.8c7.1-10.1,18.9-17.2,28.9-24.1c10.9-7.5,23.3-14.4,35.7-19
			c6.2-2.3,12.9-3.3,19.4-4.5c6.7-1.2,13.5-2.4,20.4-3c10.7-1,24.6,0.7,29.2,12.2c3.7,9.2,2.9,21.9,1,31.4
			c-2.6,13.2-10.8,23.1-18.4,33.7c-7.5,10.3-15.7,19.5-24.9,28.3c-10,9.6-19.8,19.4-30.2,28.5c-10.8,9.3-21.5,18.7-32.4,27.8
			c-10.8,9.1-22.1,17.8-35,23.7c-5.7,2.6-11.2,5.3-16.7,8.2c-2.3,1.2-4.8,1.8-7.1,2.8c-4.6,2,3.7-3.3,1.8,0.7
			c-0.1,0.2-0.8-2.8-0.8-3.1c0-5.7,4.7-10.8,8.3-14.8c4.6-5.2,9.2-10.3,14.1-15.2c20-20,41.2-39.2,62.3-58
			c21.5-19.2,43.9-37.7,66.9-55.2c26-19.8,53.6-37.5,80.7-55.7c13.7-9.2,27.4-18.5,41.7-26.8c6.7-3.9,13.6-7.5,20.2-11.7
			c6.2-4,12-9.1,19-11.8c5.9-2.3-3.2-3.8-5.3-3.9c-17.3-0.2-32.4,6.9-45.6,17.6c-6.6,5.3-12.7,11.3-18.4,17.5
			c-6.2,6.7-10.3,13.7-14,22c-3.1,6.9-8,14.4-5.6,22.3c2.5,8.1,10.7,9.3,18.3,7.9c7.4-1.4,13-8.5,18.4-13.3c7.2-6.4,14.3-13,21-19.9
			c7.3-7.6,14-15.7,21.6-23c3.9-3.8,8.1-7.4,12-11.3c1.9-2,3.9-4,5.6-6.3c1.4-1.9,2.4-4.4,4.4-5.8c-4.7-0.4-9.3-0.8-14-1.1
			c0.3,5.3-5.5,10.1-8.8,13.7c-5.1,5.6-10.5,10.6-14.6,17c-3.7,5.7-7.9,10.7-10.3,17c-1.6,4.2-3.9,9.4-3.7,14
			c0.5,9.4,18.2,5.2,23.4,3.1c8.8-3.6,16.6-9.2,24.5-14.4c5.5-3.6,10.8-7.2,15.9-11.4c7.5-6.3,15.6-12,22.3-19.2
			c2.4-2.6-10.1-2.7-11-2.6c-4.4,0.7-7.5,3.3-10.6,6.3c-4.3,4.2-9.1,7.6-13.9,11.3c-10.1,7.7-19.8,18.1-25.8,29.4
			c-1.3,2.5-4,6.7-2.6,9.6c1.6,3.2,7.3,3.3,10.3,3.3c8.2,0,15.4-3.7,22.5-7.4c12.3-6.4,24.4-12.6,36.2-19.9
			c5.6-3.4,11.5-6.4,16.9-10.1c5.1-3.5,9.5-8,14.2-12c10.3-8.8,21.4-16.6,31.7-25.5c10.8-9.4,20.8-19.5,30.9-29.7
			c11-11.1,22.3-21.9,33.2-33.1c5-5.1,9.2-10,12.9-16.1c1.6-2.6,6-6.8,5.1-10.1c-0.5-1.8-4.1-2-5.5-2.2c-6.9-0.7-12.3,1-17.6,5.4
			c-5.5,4.5-11,8.6-16.1,13.7c-11.2,11.1-22.8,21.8-32.5,34.2c-19.2,24.3-37.4,49.2-54.7,74.9c-4.6,6.9-8.3,14.3-12.5,21.5
			c-4.1,7.1-8.1,14.5-8.5,22.8c-0.1,2.6,8.5,2.3,9.5,2.2c14.3-1.6,23.3-11.4,35.5-17.8c3.1-1.6,6.4-3,9.4-4.9
			c2.8-1.8,5.3-4.1,8.3-5.6c1-0.5,2-0.9,3-1.3c-2.8-0.4-3.6-0.1-2.4,1c0.3,1.3,2.3,3.3,3,4.6c1.7,3.3,2.9,6.8,4.8,10
			c1.7,2.9,10.1,1.8,12.5,1c4.3-1.4,4.9-4.4,6.7-8.2c1.9-4.2,5.7-6.9,6.1-11.8c0.2-3-14.7-3.5-15,0c-0.3,4.1-3.4,6.4-5.3,9.9
			c-0.6,1.1-1,2.3-1.4,3.4c-0.4,0.8-0.8,1.6-1.2,2.4c-0.2,0.5-1.4,1.3-0.5,1c4.2,0.3,8.4,0.7,12.5,1c-3.8-6.5-5.4-15.8-13.6-18.2
			c-7.9-2.3-17.4-0.4-24.2,4c-3.6,2.3-6.8,4.9-10.6,6.8c-3.7,1.9-7.4,3.6-10.8,5.9c-3.4,2.2-6.6,4.7-10,6.9c-3.1,2-7.1,5-10.9,5.4
			c3.2,0.7,6.3,1.5,9.5,2.2c0.4-9.1,5.3-16.9,9.7-24.7c4.3-7.5,8.2-15,13.1-22c10.4-14.9,20.4-30.2,31.6-44.5
			c11.2-14.4,21.7-29.6,34.6-42.6c6.4-6.4,12.9-12.7,19.3-19.1c3-3,6.1-5.9,9.5-8.5c1.6-1.2,3.3-2.4,4.9-3.6
			c0.7-0.6,1.5-1.2,2.2-1.9c2.7-1.4,2-1.9-1.9-1.3c-1.8-0.7-3.7-1.5-5.5-2.2c0.8,2.8-2.7,6.1-4.1,8.3c-2.5,4-4.8,7.8-8.1,11.4
			c-8.1,8.7-16.8,16.9-25.2,25.2c-17.5,17.3-34.1,35.4-53.4,50.7c-9.2,7.3-18.6,14.3-27.2,22.2c-8.6,7.8-18.8,13-28.6,19
			c-10.5,6.5-21.5,11.8-32.3,17.5c-2.7,1.4-5.4,2.9-8.2,4.1c-1.1,0.4-2.6,0.6-3.6,1.2c-1,0.6,6.4,2.1,6.8,0.5c0.1-0.3-0.2-1.6-0.2-2
			c0.4-5.2,5.5-11.3,8.5-15.2c3.7-4.9,7.9-9.3,12.3-13.6c4.7-4.6,10.1-8.3,15.3-12.3c1.8-1.4,3.4-2.9,5.1-4.5c1-1,3.9-4.4,4.6-4.5
			c-3.7-0.9-7.3-1.7-11-2.6c-6.3,6.8-13.9,12.1-20.9,18c-5.2,4.3-10.6,8.1-16.3,11.8c-4.2,2.8-8.4,5.6-12.7,8.2
			c-2.4,1.4-4.8,2.8-7.3,4.1c-1.6,0.8-4.1,1.5-5.3,2.2c2.3-0.4,4.4-0.2,6.4,0.6c-0.3-0.2-0.4-0.5-0.4-0.8c0.2-1,0-2.2,0.1-3.3
			c0.4-2.8,1.3-5.7,2.2-8.4c2.3-6.8,6.2-12.1,10.1-18c4.6-6.9,10.2-12.5,15.8-18.6c3.5-3.8,9.3-8.8,9-14.5c-0.2-3.6-12.1-2.4-14-1.1
			c-2.6,1.7-3.8,3.8-5.5,6.3c-2.3,3.2-5.1,6.1-8,8.8c-5.8,5.6-11.9,11-17.5,16.8c-11.1,11.7-21.7,23.4-33.7,34.2
			c-2.9,2.6-5.8,5.1-8.6,7.7c-0.9,0.9-1.8,1.8-2.8,2.6c-0.3,0.2-1.8,1.2-1.9,1.4c2.3,0,4.6,0.1,7,0.1c-0.3-0.3-0.5-0.6-0.8-1
			c-0.1-1.4-1.6-3.3-1.9-4.9c-0.3-1.5-0.2-3-0.1-4.5c0.4-4,2.1-7.7,3.9-11.2c3.1-6.4,5.5-12.8,9.8-18.5c4.4-5.9,9.6-11.1,14.9-16.2
			c10.5-10.1,25-22.8,40.5-22.6c-1.8-1.3-3.5-2.6-5.3-3.9c-6.5,2.5-11.9,6.4-17.6,10.3c-6.4,4.4-13.2,8.1-20,11.9
			c-14,7.9-27.4,16.9-40.8,25.8c-26.4,17.6-53.1,34.9-78.7,53.7c-25.7,18.9-50.6,39.6-74.5,60.8c-12.1,10.8-23.9,22-35.9,33
			c-11.6,10.6-23.3,21.3-34,32.8c-4.4,4.8-9.5,9.7-12.9,15.4c-2,3.4-4.9,9.3-1.8,12.8c3.1,3.6,10.5,3.3,14.8,2.9
			c5.8-0.5,11.6-2,16.8-4.6c13.1-6.5,26.4-12.4,38.3-21c12.5-9,24-19.4,35.6-29.4c12-10.3,23.7-20.8,35.1-31.8
			c10.6-10.2,21.5-20.1,30.2-32c7.7-10.7,17.1-21.3,20.7-34.3c3-10.7,4.1-24.9,0.3-35.6c-4-11.2-16.5-15.4-27.3-16.8
			c-14.7-2-29.6,0.6-44.1,3.1c-7.2,1.2-14.7,2.4-21.7,4.7c-7.2,2.4-13.7,6.1-20.4,9.4c-12.8,6.3-24.1,14.4-35.5,22.8
			c-5.3,3.9-10.4,8-14.2,13.5c-1.9,2.8,8.2,2.9,9.2,2.8c8.7-1.1,14.4-7,21.1-12.1c8.9-6.7,17.2-14.1,25.3-21.7
			c16.7-15.7,33.2-31.5,49.8-47.4c8.2-7.9,16.8-15.5,24-24.3c6.8-8.2,12.6-17.2,18.8-25.8c12.7-17.7,25.9-35.4,34.8-55.4
			c6.8-15.3,12.1-35.7,3.8-51.3c-9.3-17.5-28.5-21.7-46.7-20c-21.1,1.9-39.8,11.1-58.3,20.9c-19.7,10.5-38.8,22.2-56.8,35.4
			c-10.1,7.4-19.3,15.7-28.4,24.2c-8.9,8.4-18.4,16.3-26.7,25.4c-6.4,7-12.4,14.8-18.1,22.4c-4.9,6.5-10.4,14.8-8.1,23.3
			C331.4,368.7,346,367,345.4,364.8L345.4,364.8z"/>
	</g>
</g>
<g>
	<g>
		<path d="M854.2,446.2c10.5-15,18.9-31.3,27.5-47.5c9.2-17.5,18.3-35.1,27.3-52.8c8.5-16.8,15.8-34,24-51
			c3.8-7.7,7.7-15.4,10.7-23.5c3.1-8.4,4.9-17.2,6.6-26c-1.2,0.7-2.5,1.3-3.7,2c12.5-2.2,25-4.8,37.7-5.4c12.6-0.6,25,0.9,37.4,2.6
			c5.3,0.7,10.7,1,15.8,2.6c6.4,1.9,11.8,6.2,16.9,10.5c3.4,2.9,6.8,5.9,9.5,9.4c3,3.9,3.1,8.1,1.9,12.8
			c-2.6,10.2-10.5,19.1-17.2,26.9c-7.7,8.9-16.4,15.5-26.8,21c-10.6,5.7-21.4,11.2-32.3,16.3c-11.4,5.4-22.8,9.8-35.7,9.3
			c-9.1-0.3-14.9-10.9-11-19c3.8-7.8,14.3-9.2,21.9-9.8c1.3-0.1,6.3-0.5,5.2-2.8c-1-2.1-7.6-1.7-9.2-1.6c-9.5,0.7-20.5,2.1-28.2,8.2
			c-7.8,6.1-7.5,17.9,0.3,24c9.4,7.3,23.2,5.9,34.2,4.8c15.6-1.5,29.3-7.7,43.2-14.6c12.8-6.4,26.4-12.4,38-20.8
			c11-7.9,20.2-19.1,27.4-30.5c2.7-4.2,5-9.2,5.7-14.2c0.8-6-1.8-10.3-5.9-14.6c-8.8-9.3-19.6-17.2-32.3-19.8
			c-16.7-3.5-34.5-5.3-51.5-5.4c-17.9-0.1-35.2,3-52.7,6.1c-1.1,0.2-3.4,0.5-3.7,2c-1.7,8.8-3.5,17.5-6.6,26
			c-3.3,8.8-7.7,17.2-11.7,25.7c-7.8,16.5-15.1,33.1-23.3,49.4c-8.7,17.1-17.4,34.1-26.4,51c-8.5,16.2-17,32.4-27.5,47.5
			C838.2,447.2,851.9,449.5,854.2,446.2L854.2,446.2z"/>
	</g>
</g>
<g>
	<g>
		<path d="M909.4,436c-3.1,0-6.1,0-9.2,0c-1.5,0-7.3,0-7.5,2.3c-0.1,2.2,6.6,2.3,7.5,2.3c3.1,0,6.1,0,9.2,0c1.5,0,7.3,0,7.5-2.3
			C917.1,436.1,910.4,436,909.4,436L909.4,436z"/>
	</g>
</g>
<g>
	<g>
		<path d="M621.8,512.5c-9.7,6.3-20.7,9.9-31,15c-3,1.5,1.5,2.9,2.7,3.1c3.3,0.7,7.1,0.5,10.3-0.8c10.2-4.1,20.8-6.7,31.2-10.1
			c9.9-3.2,19.6-6.9,29.3-10.3c20.3-7.1,40.6-13.9,61.1-20.3c20.8-6.4,41.8-12.6,63.1-17c10.4-2.1,20.8-4,31.3-5.7
			c6.9-1.1,15.9-4,22.9-2.7c1.7,0.3,3.9,1.1,5.2,2.3c2,1.8,1.2,3.3-0.4,5.2c-2.3,2.7-5.6,4.4-8.8,5.8c-3.2,1.4-6.5,2.3-9.8,3.3
			c-4.9,1.5-10,4.8-15.1,5.3c-1.3,0.1-6.3,0.5-5.2,2.8c1,2.1,7.6,1.7,9.2,1.6c6.2-0.6,11.5-2.7,17.3-4.9c3.9-1.5,8-2.5,12-3.9
			c7-2.5,15.3-6,17.6-13.8c-0.1-0.2-0.2-0.4-0.3-0.6c-10.2-10.5-27.7-8-40.7-6c-18.9,2.9-37.8,6.1-56.4,10.5
			c-38.5,9-76.2,21.9-113.6,34.9c-10.7,3.7-21.3,7.8-32.1,11.1c-10.4,3.2-20.8,6.1-30.8,10.2c4.3,0.8,8.6,1.5,13,2.3
			c10.3-5.1,21.4-8.7,31-15c2.6-1.7-1.2-2.8-2.7-3.1C629.2,511.1,624.3,510.8,621.8,512.5L621.8,512.5z"/>
	</g>
</g>
</svg>
